<?xml version="1.0" standalone="no"?>
<!DOCTYPE svg PUBLIC "-//W3C//DTD SVG 20010904//EN"
 "http://www.w3.org/TR/2001/REC-SVG-20010904/DTD/svg10.dtd">
<svg version="1.0" xmlns="http://www.w3.org/2000/svg"
 width="512.000000pt" height="512.000000pt" viewBox="0 0 512.000000 512.000000"
 preserveAspectRatio="xMidYMid meet">
<metadata>
Created by potrace 1.14, written by Peter Selinger 2001-2017
</metadata>
<g transform="translate(0.000000,512.000000) scale(0.100000,-0.100000)"
fill="#000000" stroke="none">
<path d="M1895 5109 c-22 -4 -56 -9 -75 -12 -78 -12 -187 -28 -215 -31 -16 -3
-142 -21 -280 -41 -137 -21 -256 -37 -263 -38 -10 0 -12 -9 -8 -31 3 -17 8
-53 11 -81 3 -27 8 -57 10 -65 2 -8 7 -42 11 -75 3 -33 8 -62 9 -65 2 -3 6
-30 10 -60 3 -30 10 -82 15 -115 30 -195 30 -217 5 -221 -11 -2 -40 -6 -65 -9
-25 -3 -101 -15 -170 -26 -69 -10 -129 -19 -134 -19 -8 0 -5 -47 10 -130 3
-19 7 -36 8 -37 2 -2 27 1 57 7 30 5 72 11 94 14 46 7 112 17 138 22 21 4 21
1 3 -34 -23 -46 -48 -164 -48 -227 0 -55 12 -128 27 -167 4 -10 -5 -18 -35
-27 -46 -14 -66 -39 -76 -98 -17 -108 89 -243 192 -243 14 0 39 7 54 17 27 16
29 15 59 -10 41 -34 142 -82 208 -97 49 -11 52 -14 67 -57 19 -56 22 -52 -95
-140 l-88 -66 23 -45 23 -44 -59 -202 c-33 -110 -61 -210 -64 -221 -2 -11 -20
-72 -39 -135 l-35 -115 22 -30 c12 -16 87 -108 166 -203 l144 -173 3 -127 c1
-70 3 -130 4 -133 1 -3 36 0 79 6 42 7 80 10 84 6 3 -3 13 -60 22 -126 8 -66
22 -172 31 -235 21 -159 22 -160 40 -300 9 -69 18 -134 20 -145 1 -11 6 -47 9
-80 4 -33 9 -67 11 -75 2 -8 7 -42 11 -75 3 -33 8 -68 10 -79 2 -10 6 -41 9
-70 l5 -51 -125 -109 c-69 -60 -123 -111 -121 -113 3 -3 62 -4 133 -3 70 1
170 3 220 3 69 2 93 5 93 15 0 7 3 11 8 9 10 -6 196 -44 252 -51 25 -3 54 -8
65 -10 11 -2 47 -7 80 -10 33 -3 92 -9 130 -13 71 -7 414 -10 515 -4 50 3 159
15 235 26 243 35 529 120 742 220 131 62 282 151 290 171 5 15 -79 288 -133
428 -35 90 -40 111 -26 102 4 -2 14 -1 22 4 11 7 5 29 -30 112 -148 359 -339
659 -557 875 l-123 122 -71 173 c-39 95 -77 187 -84 203 -29 64 -65 155 -65
163 0 5 42 21 93 37 176 55 350 137 495 232 46 31 86 62 89 70 7 17 -28 142
-76 273 -30 81 -146 329 -160 340 -3 3 -12 16 -19 30 -23 45 -113 160 -171
219 -80 80 -135 122 -224 171 -65 35 -77 45 -72 62 4 11 -1 30 -10 45 -15 23
-22 25 -65 21 -45 -5 -47 -4 -30 11 33 27 50 71 38 96 -7 16 -7 29 2 45 20 37
23 140 7 180 -39 89 -160 147 -327 154 -200 8 -306 -75 -311 -244 -2 -36 10
-141 17 -151 2 -3 6 -20 9 -37 5 -30 5 -31 -80 -63 -47 -17 -88 -36 -91 -40
-12 -20 -31 -6 -49 34 -10 23 -39 74 -66 113 l-47 72 51 7 c29 4 61 9 72 10
11 2 40 7 65 10 24 3 46 7 47 9 2 1 -2 39 -8 84 l-12 81 -35 -5 c-36 -4 -55
-7 -152 -24 -30 -5 -80 -12 -110 -15 -30 -4 -57 -8 -60 -10 -19 -11 -34 22
-46 101 -7 49 -15 102 -18 118 -3 16 -8 50 -12 75 -3 25 -8 57 -10 71 -3 22
-22 154 -29 205 -10 67 -17 110 -21 117 -5 8 -21 7 -79 -3z m1370 -2641 c38
-68 82 -148 100 -178 18 -30 48 -85 68 -122 l37 -66 -105 53 c-58 30 -111 60
-118 67 -142 151 -177 197 -173 225 3 15 6 47 8 71 2 47 6 52 52 63 61 14 61
14 131 -113z m-564 -18 c4 -8 15 -51 24 -95 9 -44 20 -92 25 -107 6 -20 4 -30
-8 -41 -23 -20 -103 -69 -106 -65 -3 3 -14 32 -72 191 -17 47 -17 48 10 117
l27 69 46 -27 c25 -15 49 -34 54 -42z m385 -204 c17 -13 17 -14 1 -12 -19 2
-47 26 -31 26 6 0 19 -6 30 -14z"/>
</g>
</svg>
